<svg version="1.1" id="Layer_1" xmlns="http://www.w3.org/2000/svg" xmlns:xlink="http://www.w3.org/1999/xlink" x="0px" y="0px"
	 width="100%" viewBox="0 0 1181 664" enable-background="new 0 0 0 0" xml:space="preserve">
<path fill="#000000" opacity="0.000000" stroke="none" 
	d="
M1.000000,242.000000 
	C1.000000,161.701462 1.000000,81.402939 1.000000,1.000000 
	C253.022614,1.000000 505.045258,1.000000 757.533936,1.468657 
	C758.000000,11.527802 758.000000,21.118290 758.000000,30.695391 
	C818.935364,30.695391 879.376038,30.695391 940.000000,30.695391 
	C940.000000,20.594408 940.000000,10.797204 940.000000,1.000000 
	C1020.594421,1.000000 1101.188843,1.000000 1182.000000,1.000000 
	C1182.000000,81.022514 1182.000000,161.045227 1181.531372,241.533966 
	C1171.472290,242.000000 1161.881714,242.000000 1152.304688,242.000000 
	C1152.304688,302.935364 1152.304688,363.376007 1152.304688,424.000000 
	C1162.405640,424.000000 1172.202759,424.000000 1182.000000,424.000000 
	C1182.000000,504.261383 1182.000000,584.522766 1182.000000,665.000000 
	C1101.644165,665.000000 1021.288147,665.000000 940.466064,664.531372 
	C940.000000,654.472229 940.000000,644.881714 940.000000,635.304626 
	C879.064575,635.304626 818.623901,635.304626 758.000000,635.304626 
	C758.000000,645.405640 758.000000,655.202820 758.000000,665.000000 
	C505.761536,665.000000 253.523056,665.000000 1.000000,665.000000 
	C1.000000,534.644165 1.000000,404.288116 1.468657,273.466034 
	C11.539816,273.000000 21.142317,273.000000 31.132793,273.000000 
	C31.132793,293.264893 31.132793,313.004181 31.132793,333.135651 
	C41.600700,333.135651 51.676964,333.135651 62.138489,333.135651 
	C62.138489,353.270691 62.138489,373.009949 62.138489,393.141357 
	C72.273224,393.141357 82.016708,393.141357 92.146225,393.141357 
	C92.146225,403.611420 92.146225,413.688416 92.146225,423.726868 
	C112.282921,423.726868 132.019211,423.726868 152.149902,423.726868 
	C152.149902,403.384369 152.149902,383.311890 152.149902,362.847351 
	C162.617966,362.847351 172.694931,362.847351 183.155487,362.847351 
	C183.155487,342.712097 183.155487,322.972778 183.155487,302.841614 
	C193.290604,302.841614 203.034515,302.841614 212.720825,302.841614 
	C212.720825,282.371521 212.720825,262.301849 212.720825,242.279556 
	C192.370743,242.279556 172.301071,242.279556 151.839264,242.279556 
	C151.839264,272.627106 151.839264,302.697144 151.839264,333.161560 
	C141.706146,333.161560 131.962173,333.161560 121.833534,333.161560 
	C121.833534,343.298859 121.833534,353.042877 121.833534,362.714722 
	C111.693222,362.714722 101.954796,362.714722 91.825729,362.714722 
	C91.825729,342.693024 91.825729,322.953766 91.825729,302.822815 
	C81.690178,302.822815 71.946251,302.822815 61.819962,302.822815 
	C61.819962,282.353882 61.819962,262.281311 61.819962,242.000000 
	C41.282391,242.000000 21.141195,242.000000 1.000000,242.000000 
M1090.995483,121.129303 
	C1090.995483,111.457268 1090.995483,101.785233 1090.995483,91.872437 
	C1080.596802,91.872437 1070.858276,91.872437 1061.008423,90.957100 
	C1061.008423,81.049873 1061.008423,71.142647 1061.008423,60.872463 
	C1050.675415,60.872463 1040.897705,60.872463 1031.008423,59.957138 
	C1031.008423,50.373940 1031.008423,40.790745 1031.008423,31.257475 
	C1010.374573,31.257475 990.325317,31.257475 970.245056,31.257475 
	C970.245056,41.244465 970.245056,50.972321 970.245056,60.720150 
	C990.744812,60.720150 1010.999573,60.720150 1031.019043,61.713047 
	C1031.019043,71.738770 1031.019043,81.764496 1031.019043,91.720078 
	C1041.467163,91.720078 1051.360718,91.720078 1061.019043,92.712997 
	C1061.019043,101.978333 1061.019043,111.243668 1061.019043,121.932564 
	C1071.164429,121.932564 1081.121704,121.932564 1091.005493,122.875824 
	C1091.005493,132.485245 1091.005493,142.094681 1091.005493,152.128464 
	C1101.284546,152.128464 1111.082031,152.128464 1120.991455,153.043610 
	C1120.991455,172.613327 1120.991455,192.183060 1120.991455,211.742233 
	C1131.604492,211.742233 1141.665405,211.742233 1151.771729,211.742233 
	C1151.771729,191.767639 1151.771729,172.051651 1151.771729,152.280853 
	C1141.277710,152.280853 1131.011353,152.280853 1120.980835,151.287781 
	C1120.980835,141.560760 1120.980835,131.833725 1120.980835,122.074493 
	C1110.531250,122.074493 1100.734009,122.074493 1090.995483,121.129303 
M1092.043457,544.008423 
	C1101.581299,544.008423 1111.119019,544.008423 1120.931030,544.008423 
	C1120.931030,533.679688 1120.931030,523.799927 1121.874390,513.994324 
	C1131.803345,513.994324 1141.732178,513.994324 1151.635620,513.994324 
	C1151.635620,493.719757 1151.635620,473.889923 1151.635620,454.348022 
	C1141.207520,454.348022 1131.145264,454.348022 1121.072998,454.348022 
	C1121.072998,474.484741 1121.072998,494.273529 1120.128296,514.004456 
	C1110.529541,514.004456 1100.930786,514.004456 1091.280640,514.004456 
	C1091.280640,524.387390 1091.280640,534.320923 1090.287598,544.019104 
	C1080.558594,544.019104 1070.829590,544.019104 1061.068970,544.019104 
	C1061.068970,554.478210 1061.068970,564.278992 1060.125610,574.005676 
	C1050.453369,574.005676 1040.781128,574.005676 1030.871704,574.005676 
	C1030.871704,584.739136 1030.871704,594.809570 1029.956543,604.991577 
	C1010.053894,604.991577 990.151245,604.991577 970.257629,604.991577 
	C970.257629,615.270203 970.257629,624.998108 970.257629,634.772522 
	C990.565002,634.772522 1010.613892,634.772522 1030.719360,634.772522 
	C1030.719360,624.612305 1030.719360,614.678955 1031.712402,604.980896 
	C1041.439575,604.980896 1051.166748,604.980896 1060.927002,604.980896 
	C1060.927002,594.197693 1060.927002,584.067688 1061.871704,573.995544 
	C1071.543457,573.995544 1081.215332,573.995544 1091.128296,573.995544 
	C1091.128296,563.596741 1091.128296,553.858337 1092.043457,544.008423 
M636.980957,573.287048 
	C636.980957,563.558228 636.980957,553.829346 636.980957,544.068481 
	C626.521790,544.068481 616.721130,544.068481 606.994385,543.125122 
	C606.994385,533.452942 606.994385,523.780762 606.994385,513.872314 
	C596.260559,513.872314 586.190125,513.872314 576.008362,512.956970 
	C576.008362,493.387451 576.008362,473.817963 576.008362,454.257477 
	C565.729858,454.257477 556.002075,454.257477 546.227539,454.257477 
	C546.227539,474.231506 546.227539,493.947205 546.227539,513.719910 
	C556.387634,513.719910 566.320862,513.719910 576.019043,514.712952 
	C576.019043,524.440063 576.019043,534.167175 576.019043,543.926636 
	C586.802551,543.926636 596.932556,543.926636 607.004456,544.871582 
	C607.004456,554.543457 607.004456,564.215332 607.004456,574.127686 
	C617.403442,574.127686 627.141846,574.127686 636.991638,575.043030 
	C636.991638,584.950256 636.991638,594.857483 636.991638,605.127686 
	C647.324707,605.127686 657.102539,605.127686 666.991638,606.043030 
	C666.991638,615.626160 666.991638,625.209351 666.991638,634.742554 
	C687.625488,634.742554 707.674744,634.742554 727.755005,634.742554 
	C727.755005,624.755554 727.755005,615.027710 727.755005,605.280090 
	C707.255310,605.280090 687.000610,605.280090 666.980957,604.287048 
	C666.980957,594.261292 666.980957,584.235596 666.980957,574.280090 
	C656.532837,574.280090 646.639343,574.280090 636.980957,573.287048 
M605.956665,121.991562 
	C596.086548,121.991562 586.216431,121.991562 576.068726,121.991562 
	C576.068726,132.318268 576.068726,142.198975 575.125366,152.005630 
	C565.529419,152.005630 555.933472,152.005630 546.364502,152.005630 
	C546.364502,172.281067 546.364502,192.110626 546.364502,211.651443 
	C556.459717,211.651443 566.189209,211.651443 575.926880,211.651443 
	C575.926880,191.514450 575.926880,171.725983 576.871643,151.995499 
	C586.803467,151.995499 596.735229,151.995499 606.719604,151.995499 
	C606.719604,141.613037 606.719604,131.679260 607.712585,121.980911 
	C617.441528,121.980911 627.170410,121.980911 636.931274,121.980911 
	C636.931274,111.521843 636.931274,101.721092 637.874634,91.994362 
	C647.546814,91.994362 657.219055,91.994362 667.128052,91.994362 
	C667.128052,81.260681 667.128052,71.190323 668.043335,61.008430 
	C687.945984,61.008430 707.848633,61.008430 727.742432,61.008430 
	C727.742432,50.729855 727.742432,41.001976 727.742432,31.227470 
	C707.435059,31.227470 687.386169,31.227470 667.280396,31.227470 
	C667.280396,41.387665 667.280396,51.321072 666.287354,61.019081 
	C656.560181,61.019081 646.833008,61.019081 637.073120,61.019081 
	C637.073120,71.802406 637.073120,81.932457 636.128357,92.004494 
	C626.456543,92.004494 616.784729,92.004494 606.871948,92.004494 
	C606.871948,102.403267 606.871948,112.141624 605.956665,121.991562 
M390.500000,424.000000 
	C401.929688,424.000000 413.359375,424.000000 424.710571,424.000000 
	C424.710571,413.352295 424.710571,403.280121 424.710571,392.819611 
	C384.353119,392.819611 344.283722,392.819611 304.290649,392.819611 
	C304.290649,382.683105 304.290649,372.944153 304.290649,362.815643 
	C334.650452,362.815643 364.721466,362.815643 394.708130,362.815643 
	C394.708130,342.680542 394.708130,322.943359 394.708130,303.294739 
	C384.341492,303.294739 374.269135,303.294739 363.804382,303.294739 
	C363.804382,313.328491 363.804382,323.072479 363.804382,332.700958 
	C343.666046,332.700958 323.928741,332.700958 304.300415,332.700958 
	C304.300415,312.663239 304.300415,292.925903 304.300415,272.797607 
	C344.669006,272.797607 384.738434,272.797607 424.698425,272.797607 
	C424.698425,262.327454 424.698425,252.254868 424.698425,242.296783 
	C363.997131,242.296783 303.597900,242.296783 243.291977,242.296783 
	C243.291977,302.993225 243.291977,363.392456 243.291977,424.000000 
	C292.222443,424.000000 340.861206,424.000000 390.500000,424.000000 
M879.000000,353.500000 
	C879.000000,386.915375 879.000000,420.330719 879.000000,453.698090 
	C899.645447,453.698090 919.705994,453.698090 940.168091,453.698090 
	C940.168091,383.019867 940.168091,312.642639 940.168091,241.842178 
	C970.629761,241.842178 1000.688965,241.842178 1030.692993,241.842178 
	C1030.692993,231.682266 1030.692993,221.950714 1030.692993,212.286438 
	C949.679443,212.286438 868.973206,212.286438 788.301880,212.286438 
	C788.301880,222.307083 788.301880,232.038483 788.301880,242.188477 
	C818.660706,242.188477 848.719849,242.188477 879.000000,242.188477 
	C879.000000,279.242310 879.000000,315.871155 879.000000,353.500000 
M569.423279,363.000000 
	C561.665649,363.000000 553.907959,363.000000 545.769836,363.000000 
	C545.769836,342.635986 545.769836,322.897583 545.769836,302.768738 
	C535.634521,302.768738 525.891052,302.768738 515.767700,302.768738 
	C515.767700,282.300568 515.767700,262.228912 515.767700,242.313217 
	C495.301147,242.313217 475.231720,242.313217 455.314972,242.313217 
	C455.314972,252.701294 455.314972,262.773560 455.314972,273.234924 
	C465.702637,273.234924 475.779388,273.234924 486.233307,273.234924 
	C486.233307,303.367584 486.233307,333.103149 486.233307,363.231750 
	C496.365997,363.231750 506.109467,363.231750 516.232788,363.231750 
	C516.232788,383.699951 516.232788,403.771606 516.232788,423.686462 
	C536.366150,423.686462 556.102295,423.686462 576.232117,423.686462 
	C576.232117,413.300262 576.232117,403.223541 576.232117,392.764343 
	C586.703308,392.764343 596.780090,392.764343 607.236633,392.764343 
	C607.236633,372.629456 607.236633,352.891052 607.236633,332.762329 
	C617.372131,332.762329 627.115723,332.762329 637.238770,332.762329 
	C637.238770,312.627319 637.238770,292.888916 637.238770,272.760132 
	C647.374329,272.760132 657.117920,272.760132 666.679016,272.760132 
	C666.679016,262.286530 666.679016,252.213852 666.679016,242.320221 
	C646.620483,242.320221 626.884155,242.320221 606.757202,242.320221 
	C606.757202,262.710144 606.757202,282.781799 606.757202,303.243713 
	C596.288391,303.243713 586.211731,303.243713 575.754761,303.243713 
	C575.754761,323.378113 575.754761,343.115906 575.754761,363.000000 
	C573.706055,363.000000 572.053162,363.000000 569.423279,363.000000 
M758.000000,261.500000 
	C758.000000,245.076462 758.000000,228.652908 758.000000,212.314209 
	C737.332397,212.314209 717.270325,212.314209 697.302002,212.314209 
	C697.302002,293.007233 697.302002,373.385712 697.302002,453.685791 
	C717.667542,453.685791 737.729675,453.685791 758.000000,453.685791 
	C758.000000,389.747894 758.000000,326.123962 758.000000,261.500000 
z"/>
<path fill="#FFFFFF" opacity="1.000000" stroke="none" 
	d="
M1.000000,242.468658 
	C21.141195,242.000000 41.282391,242.000000 61.819962,242.000000 
	C61.819962,262.281311 61.819962,282.353882 61.819962,302.822815 
	C71.946251,302.822815 81.690178,302.822815 91.825729,302.822815 
	C91.825729,322.953766 91.825729,342.693024 91.825729,362.714722 
	C101.954796,362.714722 111.693222,362.714722 121.833534,362.714722 
	C121.833534,353.042877 121.833534,343.298859 121.833534,333.161560 
	C131.962173,333.161560 141.706146,333.161560 151.839264,333.161560 
	C151.839264,302.697144 151.839264,272.627106 151.839264,242.279556 
	C172.301071,242.279556 192.370743,242.279556 212.720825,242.279556 
	C212.720825,262.301849 212.720825,282.371521 212.720825,302.841614 
	C203.034515,302.841614 193.290604,302.841614 183.155487,302.841614 
	C183.155487,322.972778 183.155487,342.712097 183.155487,362.847351 
	C172.694931,362.847351 162.617966,362.847351 152.149902,362.847351 
	C152.149902,383.311890 152.149902,403.384369 152.149902,423.726868 
	C132.019211,423.726868 112.282921,423.726868 92.146225,423.726868 
	C92.146225,413.688416 92.146225,403.611420 92.146225,393.141357 
	C82.016708,393.141357 72.273224,393.141357 62.138489,393.141357 
	C62.138489,373.009949 62.138489,353.270691 62.138489,333.135651 
	C51.676964,333.135651 41.600700,333.135651 31.132793,333.135651 
	C31.132793,313.004181 31.132793,293.264893 31.132793,273.000000 
	C21.142317,273.000000 11.539816,273.000000 1.468657,273.000000 
	C1.000000,262.979095 1.000000,252.958206 1.000000,242.468658 
z"/>
<path fill="#FFFFFF" opacity="1.000000" stroke="none" 
	d="
M758.468628,665.000000 
	C758.000000,655.202820 758.000000,645.405640 758.000000,635.304626 
	C818.623901,635.304626 879.064575,635.304626 940.000000,635.304626 
	C940.000000,644.881714 940.000000,654.472229 940.000000,664.531372 
	C879.645752,665.000000 819.291565,665.000000 758.468628,665.000000 
z"/>
<path fill="#FFFFFF" opacity="1.000000" stroke="none" 
	d="
M1182.000000,423.531342 
	C1172.202759,424.000000 1162.405640,424.000000 1152.304688,424.000000 
	C1152.304688,363.376007 1152.304688,302.935364 1152.304688,242.000000 
	C1161.881714,242.000000 1171.472290,242.000000 1181.531372,242.000000 
	C1182.000000,302.354218 1182.000000,362.708466 1182.000000,423.531342 
z"/>
<path fill="#FFFFFF" opacity="1.000000" stroke="none" 
	d="
M939.531372,1.000000 
	C940.000000,10.797204 940.000000,20.594408 940.000000,30.695391 
	C879.376038,30.695391 818.935364,30.695391 758.000000,30.695391 
	C758.000000,21.118290 758.000000,11.527802 758.000000,1.468657 
	C818.354248,1.000000 878.708435,1.000000 939.531372,1.000000 
z"/>
<path fill="#FFFFFF" opacity="1.000000" stroke="none" 
	d="
M390.000000,424.000000 
	C340.861206,424.000000 292.222443,424.000000 243.291977,424.000000 
	C243.291977,363.392456 243.291977,302.993225 243.291977,242.296783 
	C303.597900,242.296783 363.997131,242.296783 424.698425,242.296783 
	C424.698425,252.254868 424.698425,262.327454 424.698425,272.797607 
	C384.738434,272.797607 344.669006,272.797607 304.300415,272.797607 
	C304.300415,292.925903 304.300415,312.663239 304.300415,332.700958 
	C323.928741,332.700958 343.666046,332.700958 363.804382,332.700958 
	C363.804382,323.072479 363.804382,313.328491 363.804382,303.294739 
	C374.269135,303.294739 384.341492,303.294739 394.708130,303.294739 
	C394.708130,322.943359 394.708130,342.680542 394.708130,362.815643 
	C364.721466,362.815643 334.650452,362.815643 304.290649,362.815643 
	C304.290649,372.944153 304.290649,382.683105 304.290649,392.819611 
	C344.283722,392.819611 384.353119,392.819611 424.710571,392.819611 
	C424.710571,403.280121 424.710571,413.352295 424.710571,424.000000 
	C413.359375,424.000000 401.929688,424.000000 390.000000,424.000000 
z"/>
<path fill="#00FFFF" opacity="1.000000" stroke="none" 
	d="
M879.000000,353.000000 
	C879.000000,315.871155 879.000000,279.242310 879.000000,242.188477 
	C848.719849,242.188477 818.660706,242.188477 788.301880,242.188477 
	C788.301880,232.038483 788.301880,222.307083 788.301880,212.286438 
	C868.973206,212.286438 949.679443,212.286438 1030.692993,212.286438 
	C1030.692993,221.950714 1030.692993,231.682266 1030.692993,241.842178 
	C1000.688965,241.842178 970.629761,241.842178 940.168091,241.842178 
	C940.168091,312.642639 940.168091,383.019867 940.168091,453.698090 
	C919.705994,453.698090 899.645447,453.698090 879.000000,453.698090 
	C879.000000,420.330719 879.000000,386.915375 879.000000,353.000000 
z"/>
<path fill="#FFFFFF" opacity="1.000000" stroke="none" 
	d="
M569.911743,363.000000 
	C572.053162,363.000000 573.706055,363.000000 575.754761,363.000000 
	C575.754761,343.115906 575.754761,323.378113 575.754761,303.243713 
	C586.211731,303.243713 596.288391,303.243713 606.757202,303.243713 
	C606.757202,282.781799 606.757202,262.710144 606.757202,242.320221 
	C626.884155,242.320221 646.620483,242.320221 666.679016,242.320221 
	C666.679016,252.213852 666.679016,262.286530 666.679016,272.760132 
	C657.117920,272.760132 647.374329,272.760132 637.238770,272.760132 
	C637.238770,292.888916 637.238770,312.627319 637.238770,332.762329 
	C627.115723,332.762329 617.372131,332.762329 607.236633,332.762329 
	C607.236633,352.891052 607.236633,372.629456 607.236633,392.764343 
	C596.780090,392.764343 586.703308,392.764343 576.232117,392.764343 
	C576.232117,403.223541 576.232117,413.300262 576.232117,423.686462 
	C556.102295,423.686462 536.366150,423.686462 516.232788,423.686462 
	C516.232788,403.771606 516.232788,383.699951 516.232788,363.231750 
	C506.109467,363.231750 496.365997,363.231750 486.233307,363.231750 
	C486.233307,333.103149 486.233307,303.367584 486.233307,273.234924 
	C475.779388,273.234924 465.702637,273.234924 455.314972,273.234924 
	C455.314972,262.773560 455.314972,252.701294 455.314972,242.313217 
	C475.231720,242.313217 495.301147,242.313217 515.767700,242.313217 
	C515.767700,262.228912 515.767700,282.300568 515.767700,302.768738 
	C525.891052,302.768738 535.634521,302.768738 545.769836,302.768738 
	C545.769836,322.897583 545.769836,342.635986 545.769836,363.000000 
	C553.907959,363.000000 561.665649,363.000000 569.911743,363.000000 
z"/>
<path fill="#00FFFF" opacity="1.000000" stroke="none" 
	d="
M758.000000,262.000000 
	C758.000000,326.123962 758.000000,389.747894 758.000000,453.685791 
	C737.729675,453.685791 717.667542,453.685791 697.302002,453.685791 
	C697.302002,373.385712 697.302002,293.007233 697.302002,212.314209 
	C717.270325,212.314209 737.332397,212.314209 758.000000,212.314209 
	C758.000000,228.652908 758.000000,245.076462 758.000000,262.000000 
z"/>
<path fill="#FFFFFF" opacity="1.000000" stroke="none" 
	d="
M1120.744995,152.280853 
	C1131.011353,152.280853 1141.277710,152.280853 1151.771729,152.280853 
	C1151.771729,172.051651 1151.771729,191.767639 1151.771729,211.742233 
	C1141.665405,211.742233 1131.604492,211.742233 1120.991455,211.742233 
	C1120.991455,192.183060 1120.991455,172.613327 1120.904785,152.620941 
	C1120.818115,152.198257 1120.744995,152.280853 1120.744995,152.280853 
z"/>
<path fill="#FFFFFF" opacity="1.000000" stroke="none" 
	d="
M1121.072998,514.062317 
	C1121.072998,494.273529 1121.072998,474.484741 1121.072998,454.348022 
	C1131.145264,454.348022 1141.207520,454.348022 1151.635620,454.348022 
	C1151.635620,473.889923 1151.635620,493.719757 1151.635620,513.994324 
	C1141.732178,513.994324 1131.803345,513.994324 1121.437012,513.993896 
	C1120.999756,513.993469 1121.072998,514.062317 1121.072998,514.062317 
z"/>
<path fill="#FFFFFF" opacity="1.000000" stroke="none" 
	d="
M1030.719360,604.745544 
	C1030.719360,614.678955 1030.719360,624.612305 1030.719360,634.772522 
	C1010.613892,634.772522 990.565002,634.772522 970.257629,634.772522 
	C970.257629,624.998108 970.257629,615.270203 970.257629,604.991577 
	C990.151245,604.991577 1010.053894,604.991577 1030.379272,604.905090 
	C1030.802002,604.818604 1030.719360,604.745544 1030.719360,604.745544 
z"/>
<path fill="#FFFFFF" opacity="1.000000" stroke="none" 
	d="
M666.745850,605.280090 
	C687.000610,605.280090 707.255310,605.280090 727.755005,605.280090 
	C727.755005,615.027710 727.755005,624.755554 727.755005,634.742554 
	C707.674744,634.742554 687.625488,634.742554 666.991638,634.742554 
	C666.991638,625.209351 666.991638,615.626160 666.905273,605.620239 
	C666.818909,605.197510 666.745850,605.280090 666.745850,605.280090 
z"/>
<path fill="#FFFFFF" opacity="1.000000" stroke="none" 
	d="
M667.280396,61.254478 
	C667.280396,51.321072 667.280396,41.387665 667.280396,31.227470 
	C687.386169,31.227470 707.435059,31.227470 727.742432,31.227470 
	C727.742432,41.001976 727.742432,50.729855 727.742432,61.008430 
	C707.848633,61.008430 687.945984,61.008430 667.620605,61.094902 
	C667.197815,61.181370 667.280396,61.254478 667.280396,61.254478 
z"/>
<path fill="#FFFFFF" opacity="1.000000" stroke="none" 
	d="
M1031.254395,60.720150 
	C1010.999573,60.720150 990.744812,60.720150 970.245056,60.720150 
	C970.245056,50.972321 970.245056,41.244465 970.245056,31.257475 
	C990.325317,31.257475 1010.374573,31.257475 1031.008423,31.257475 
	C1031.008423,40.790745 1031.008423,50.373940 1031.094849,60.379906 
	C1031.181274,60.802670 1031.254395,60.720150 1031.254395,60.720150 
z"/>
<path fill="#FFFFFF" opacity="1.000000" stroke="none" 
	d="
M576.254150,513.719910 
	C566.320862,513.719910 556.387634,513.719910 546.227539,513.719910 
	C546.227539,493.947205 546.227539,474.231506 546.227539,454.257477 
	C556.002075,454.257477 565.729858,454.257477 576.008362,454.257477 
	C576.008362,473.817963 576.008362,493.387451 576.094727,513.379761 
	C576.181091,513.802490 576.254150,513.719910 576.254150,513.719910 
z"/>
<path fill="#FFFFFF" opacity="1.000000" stroke="none" 
	d="
M575.926880,151.937500 
	C575.926880,171.725983 575.926880,191.514450 575.926880,211.651443 
	C566.189209,211.651443 556.459717,211.651443 546.364502,211.651443 
	C546.364502,192.110626 546.364502,172.281067 546.364502,152.005630 
	C555.933472,152.005630 565.529419,152.005630 575.562744,152.005981 
	C576.000061,152.006317 575.926880,151.937500 575.926880,151.937500 
z"/>
<path fill="#FFFFFF" opacity="1.000000" stroke="none" 
	d="
M637.073120,92.062500 
	C637.073120,81.932457 637.073120,71.802406 637.073120,61.019081 
	C646.833008,61.019081 656.560181,61.019081 666.783875,61.136780 
	C667.280396,61.254478 667.197815,61.181370 667.162964,61.150669 
	C667.128052,71.190323 667.128052,81.260681 667.128052,91.994362 
	C657.219055,91.994362 647.546814,91.994362 637.437256,91.994019 
	C636.999939,91.993683 637.073120,92.062500 637.073120,92.062500 
z"/>
<path fill="#FFFFFF" opacity="1.000000" stroke="none" 
	d="
M1061.254272,91.720078 
	C1051.360718,91.720078 1041.467163,91.720078 1031.019043,91.720078 
	C1031.019043,81.764496 1031.019043,71.738770 1031.136719,61.216599 
	C1031.254395,60.720150 1031.181274,60.802670 1031.150635,60.837566 
	C1040.897705,60.872463 1050.675415,60.872463 1061.008423,60.872463 
	C1061.008423,71.142647 1061.008423,81.049873 1061.094727,91.379883 
	C1061.181152,91.802673 1061.254272,91.720078 1061.254272,91.720078 
z"/>
<path fill="#FFFFFF" opacity="1.000000" stroke="none" 
	d="
M576.034424,152.042999 
	C576.068726,142.198975 576.068726,132.318268 576.068726,121.991562 
	C586.216431,121.991562 596.086548,121.991562 606.379395,121.905075 
	C606.802185,121.818581 606.719604,121.745468 606.719604,121.745468 
	C606.719604,131.679260 606.719604,141.613037 606.719604,151.995499 
	C596.735229,151.995499 586.803467,151.995499 576.399292,151.966492 
	C575.926880,151.937500 576.000061,152.006317 576.034424,152.042999 
z"/>
<path fill="#FFFFFF" opacity="1.000000" stroke="none" 
	d="
M607.062561,543.926636 
	C596.932556,543.926636 586.802551,543.926636 576.019043,543.926636 
	C576.019043,534.167175 576.019043,524.440063 576.136597,514.216431 
	C576.254150,513.719910 576.181091,513.802490 576.150391,513.837402 
	C586.190125,513.872314 596.260559,513.872314 606.994385,513.872314 
	C606.994385,523.780762 606.994385,533.452942 606.994019,543.562500 
	C606.993713,543.999817 607.062561,543.926636 607.062561,543.926636 
z"/>
<path fill="#FFFFFF" opacity="1.000000" stroke="none" 
	d="
M636.745850,574.280090 
	C646.639343,574.280090 656.532837,574.280090 666.980957,574.280090 
	C666.980957,584.235596 666.980957,594.261292 666.863403,604.783569 
	C666.745850,605.280090 666.818909,605.197510 666.849609,605.162598 
	C657.102539,605.127686 647.324707,605.127686 636.991638,605.127686 
	C636.991638,594.857483 636.991638,584.950256 636.905273,574.620239 
	C636.818909,574.197510 636.745850,574.280090 636.745850,574.280090 
z"/>
<path fill="#FFFFFF" opacity="1.000000" stroke="none" 
	d="
M1060.927002,573.937683 
	C1060.927002,584.067688 1060.927002,594.197693 1060.927002,604.980896 
	C1051.166748,604.980896 1041.439575,604.980896 1031.215820,604.863220 
	C1030.719360,604.745544 1030.802002,604.818604 1030.836914,604.849304 
	C1030.871704,594.809570 1030.871704,584.739136 1030.871704,574.005676 
	C1040.781128,574.005676 1050.453369,574.005676 1060.562988,574.006104 
	C1061.000244,574.006531 1060.927002,573.937683 1060.927002,573.937683 
z"/>
<path fill="#FFFFFF" opacity="1.000000" stroke="none" 
	d="
M636.965576,91.957016 
	C636.931274,101.721092 636.931274,111.521843 636.931274,121.980911 
	C627.170410,121.980911 617.441528,121.980911 607.216064,121.863190 
	C606.719604,121.745468 606.802185,121.818581 606.837036,121.849281 
	C606.871948,112.141624 606.871948,102.403267 606.871948,92.004494 
	C616.784729,92.004494 626.456543,92.004494 636.600708,92.033493 
	C637.073120,92.062500 636.999939,91.993683 636.965576,91.957016 
z"/>
<path fill="#FFFFFF" opacity="1.000000" stroke="none" 
	d="
M1120.965332,513.956787 
	C1120.931030,523.799927 1120.931030,533.679688 1120.931030,544.008423 
	C1111.119019,544.008423 1101.581299,544.008423 1091.620728,544.094910 
	C1091.197998,544.181396 1091.280640,544.254456 1091.280640,544.254456 
	C1091.280640,534.320923 1091.280640,524.387390 1091.280640,514.004456 
	C1100.930786,514.004456 1110.529541,514.004456 1120.600586,514.033386 
	C1121.072998,514.062317 1120.999756,513.993469 1120.965332,513.956787 
z"/>
<path fill="#FFFFFF" opacity="1.000000" stroke="none" 
	d="
M606.957031,544.034180 
	C616.721130,544.068481 626.521790,544.068481 636.980957,544.068481 
	C636.980957,553.829346 636.980957,563.558228 636.863403,573.783569 
	C636.745850,574.280090 636.818909,574.197510 636.849609,574.162598 
	C627.141846,574.127686 617.403442,574.127686 607.004456,574.127686 
	C607.004456,564.215332 607.004456,554.543457 607.033508,544.399109 
	C607.062561,543.926636 606.993713,543.999817 606.957031,544.034180 
z"/>
<path fill="#FFFFFF" opacity="1.000000" stroke="none" 
	d="
M1061.034668,574.043213 
	C1061.068970,564.278992 1061.068970,554.478210 1061.068970,544.019104 
	C1070.829590,544.019104 1080.558594,544.019104 1090.784180,544.136780 
	C1091.280640,544.254456 1091.197998,544.181396 1091.163086,544.150696 
	C1091.128296,553.858337 1091.128296,563.596741 1091.128296,573.995544 
	C1081.215332,573.995544 1071.543457,573.995544 1061.399414,573.966614 
	C1060.927002,573.937683 1061.000244,574.006531 1061.034668,574.043213 
z"/>
<path fill="#FFFFFF" opacity="1.000000" stroke="none" 
	d="
M1090.936768,122.074493 
	C1100.734009,122.074493 1110.531250,122.074493 1120.980835,122.074493 
	C1120.980835,131.833725 1120.980835,141.560760 1120.862915,151.784317 
	C1120.744995,152.280853 1120.818115,152.198257 1120.848877,152.163361 
	C1111.082031,152.128464 1101.284546,152.128464 1091.005493,152.128464 
	C1091.005493,142.094681 1091.005493,132.485245 1091.005615,122.438553 
	C1091.005615,122.001289 1090.936768,122.074493 1090.936768,122.074493 
z"/>
<path fill="#FFFFFF" opacity="1.000000" stroke="none" 
	d="
M1091.042236,121.966927 
	C1081.121704,121.932564 1071.164429,121.932564 1061.019043,121.932564 
	C1061.019043,111.243668 1061.019043,101.978333 1061.136719,92.216537 
	C1061.254272,91.720078 1061.181152,91.802673 1061.150391,91.837555 
	C1070.858276,91.872437 1080.596802,91.872437 1090.995483,91.872437 
	C1090.995483,101.785233 1090.995483,111.457268 1090.966064,121.601898 
	C1090.936768,122.074493 1091.005615,122.001289 1091.042236,121.966927 
z"/>
</svg>